<?xml version="1.0" encoding="UTF-8"?>
<svg width="12px" height="19px" viewBox="0 0 12 19" version="1.1" xmlns="http://www.w3.org/2000/svg" xmlns:xlink="http://www.w3.org/1999/xlink">
    <title>Fill 1</title>
    <g id="Page-1" stroke="none" stroke-width="1" fill="none" fill-rule="evenodd">
        <path d="M10.80469,7.804682 L2.71875,0.46874 C2.406248,0.15624 2.031252,0 1.59375,0 C1.1562478,0 0.7812516,0.15624 0.46875,0.46874 C0.1562484,0.78125 -1.13686838e-13,1.15624 -1.13686838e-13,1.59374 C-1.13686838e-13,2.03125 0.1562484,2.40624 0.46875,2.71874 L7.40625,9.023432 L0.46875,15.32812 C0.1562484,15.640622 -1.13686838e-13,16.015618 -1.13686838e-13,16.45312 C-1.13686838e-13,16.8906222 0.1562484,17.2656184 0.46875,17.57812 C0.7812516,17.8906216 1.1562478,18.04687 1.59375,18.04687 C2.031252,18.04687 2.406248,17.8906216 2.71875,17.57812 L10.80469,10.242182 C10.96094,10.085932 11.07812,9.898434 11.15625,9.679682 C11.23438,9.460931 11.26563,9.242184 11.25,9.023432 C11.26563,8.804681 11.23438,8.585934 11.15625,8.367182 C11.07812,8.148431 10.96094,7.960933 10.80469,7.804682 Z" id="Fill-1" fill="#FFFFFF"></path>
    </g>
</svg>