<?xml version="1.0" encoding="UTF-8"?>
<svg width="25px" height="23px" viewBox="0 0 25 23" version="1.1" xmlns="http://www.w3.org/2000/svg" xmlns:xlink="http://www.w3.org/1999/xlink">
    <title>Fill 1</title>
    <g id="Page-1" stroke="none" stroke-width="1" fill="none" fill-rule="evenodd" opacity="0.945405506">
        <g id="Desktop-|-Accueil" transform="translate(-1321.000000, -5746.000000)" fill="#FFFFFF">
            <g id="Find-us" transform="translate(-1.000000, 851.947769)">
                <g id="Shops" transform="translate(1108.000000, 4878.427231)">
                    <g id="Liste" transform="translate(18.500000, 15.750000)">
                        <path d="M202.537852,7.19902414 L203.639195,0 L197.971307,0 L195.607448,6.17826125 C195.571632,6.28570937 195.54477,6.3976388 195.526862,6.51403806 C195.508954,6.63043733 195.5,6.7513179 195.5,6.87667977 C195.5,7.62881662 195.844726,8.27350535 196.534188,8.81074596 C197.22365,9.34798657 198.060842,9.61660114 199.045788,9.61660114 C199.941194,9.61660114 200.720185,9.38380261 201.382784,8.91819408 C202.045384,8.45258555 202.430404,7.87952891 202.537852,7.19902414 Z M207.883399,9.61660114 C208.868346,9.61660114 209.705536,9.34798657 210.394992,8.81074596 C211.084459,8.27350535 211.429187,7.62881662 211.429187,6.87667977 C211.429187,6.84086373 211.424706,6.80951753 211.415754,6.7826641 C211.406803,6.7557992 211.402322,6.72446447 211.402322,6.68863696 L210.703903,0 L205.062883,0 L204.36447,6.68863696 C204.346562,6.72446447 204.337609,6.7557992 204.337609,6.7826641 C204.337609,6.80951753 204.337609,6.84086373 204.337609,6.87667977 C204.337609,7.62881662 204.682334,8.27350535 205.371796,8.81074596 C206.061259,9.34798657 206.89845,9.61660114 207.883399,9.61660114 Z M214.760079,11.0671542 L214.760079,16.4932832 L201.006717,16.4932832 L201.006717,11.0671542 C200.702278,11.1746023 200.384414,11.2596646 200.053114,11.3223432 C199.721814,11.3850219 199.386042,11.41636 199.045788,11.41636 C198.902523,11.41636 198.768214,11.4074066 198.642858,11.3894986 C198.517501,11.3715894 198.392146,11.3536825 198.266789,11.3357734 L198.266789,20.0659338 C198.266789,20.6031767 198.454821,21.0598271 198.830892,21.4358974 C199.206962,21.8119676 199.654658,22 200.173993,22 L215.592799,22 C216.112137,22 216.559832,21.8119676 216.935894,21.4358974 C217.311969,21.0598271 217.5,20.6031767 217.5,20.0659338 L217.5,11.3357734 C217.37465,11.3536825 217.249288,11.3715894 217.123937,11.3894986 C216.998575,11.4074066 216.864274,11.41636 216.720998,11.41636 C216.380752,11.41636 216.044975,11.3850219 215.713679,11.3223432 C215.382372,11.2596646 215.064509,11.1746023 214.760079,11.0671542 Z M220.159338,6.17826125 L217.795479,0 L212.127594,0 L213.202075,7.19902414 C213.309523,7.87952891 213.699018,8.45258555 214.370572,8.91819408 C215.042126,9.38380261 215.825597,9.61660114 216.720998,9.61660114 C217.705945,9.61660114 218.543146,9.34798657 219.232602,8.81074596 C219.92207,8.27350535 220.266798,7.62881662 220.266798,6.87667977 C220.266798,6.7513179 220.257835,6.63043733 220.239933,6.51403806 C220.222019,6.3976388 220.195166,6.28570937 220.159338,6.17826125 Z" id="Fill-1"></path>
                    </g>
                </g>
            </g>
        </g>
    </g>
</svg>