<?xml version="1.0" encoding="UTF-8"?>
<svg width="12px" height="19px" viewBox="0 0 12 19" version="1.1" xmlns="http://www.w3.org/2000/svg" xmlns:xlink="http://www.w3.org/1999/xlink">
    <title>Fill 1</title>
    <g id="Page-1" stroke="none" stroke-width="1" fill="none" fill-rule="evenodd">
        <path d="M3.8476563,9.023432 L10.7851563,2.71874 C11.0976563,2.40624 11.2539063,2.03125 11.2539063,1.59374 C11.2539063,1.15624 11.0976563,0.78125 10.7851563,0.46874 C10.4726563,0.15624 10.0976563,0 9.6601563,0 C9.2226543,0 8.8476583,0.15624 8.5351563,0.46874 L0.449218805,7.804682 C0.292968005,7.960933 0.175781705,8.148431 0.0976563049,8.367182 C0.0195309149,8.585934 -0.0117187751,8.804681 0.00390630486,9.023432 C-0.0117187751,9.242184 0.0195309149,9.460931 0.0976563049,9.679682 C0.175781705,9.898434 0.292968005,10.085932 0.449218805,10.242182 L8.5351563,17.57812 C8.8476583,17.8906216 9.2226543,18.04687 9.6601563,18.04687 C10.0976563,18.04687 10.4726563,17.8906216 10.7851563,17.57812 C11.0976563,17.2656184 11.2539063,16.8906222 11.2539063,16.45312 C11.2539063,16.015618 11.0976563,15.640622 10.7851563,15.32812 L3.8476563,9.023432 Z" id="Fill-1" fill="#FFFFFF"></path>
    </g>
</svg>