<?xml version="1.0" encoding="UTF-8"?>
<svg width="28px" height="27px" viewBox="0 0 28 27" version="1.1" xmlns="http://www.w3.org/2000/svg" xmlns:xlink="http://www.w3.org/1999/xlink">
    <title>Fill 1</title>
    <g id="Page-1" stroke="none" stroke-width="1" fill="none" fill-rule="evenodd">
        <g id="Desktop-|-Accueil" transform="translate(-1192.000000, -8147.000000)" fill="#FFFFFF">
            <g id="Footer" transform="translate(-2.000000, 7674.500000)">
                <g id="Group" transform="translate(1145.174173, 472.856121)">
                    <path d="M60.0367719,6.95195347 C59.209648,7.31905293 58.4916673,7.81234651 57.8828121,8.43181952 C57.2739555,9.05130721 56.7857291,9.76255508 56.4181184,10.5655925 C56.0734831,11.3915663 55.901167,12.2748913 55.901167,13.2155881 C55.901167,14.1562849 56.0734831,15.0396099 56.4181184,15.8655866 C56.7857291,16.6915648 57.2739555,17.4142853 57.8828121,18.0337686 C58.4916673,18.6532519 59.209648,19.1350655 60.0367719,19.4792227 C60.8638973,19.8463237 61.7484492,20.0298719 62.6904525,20.0298719 C63.6324558,20.0298719 64.5170003,19.8463237 65.344136,19.4792227 C66.171257,19.1350655 66.8892421,18.6532519 67.4980913,18.0337686 C68.1069553,17.4142853 68.5951699,16.6915648 68.9627792,15.8655866 C69.3074203,15.0396099 69.4797409,14.1562849 69.4797409,13.2155881 C69.4797409,12.2748913 69.3074203,11.3915663 68.9627792,10.5655925 C68.5951699,9.76255508 68.1069553,9.05130721 67.4980913,8.43181952 C66.8892421,7.81234651 66.171257,7.31905293 65.344136,6.95195347 C64.5170003,6.60779038 63.6324558,6.43572352 62.6904525,6.43572352 C61.7484492,6.43572352 60.8638973,6.60779038 60.0367719,6.95195347 Z M59.5715167,16.330198 C58.7099287,15.4698035 58.2791406,14.4316109 58.2791406,13.2155881 C58.2791406,11.9995652 58.7099287,10.9613698 59.5715167,10.1009767 C60.4331062,9.24058369 61.4727407,8.81038717 62.6904525,8.81038717 C63.9081642,8.81038717 64.9477943,9.24058369 65.8093823,10.1009767 C66.6709704,10.9613698 67.1017644,11.9995652 67.1017644,13.2155881 C67.1017644,14.4316109 66.6709704,15.4698035 65.8093823,16.330198 C64.9477943,17.190591 63.9081642,17.6207817 62.6904525,17.6207817 C61.4727407,17.6207817 60.4331062,17.190591 59.5715167,16.330198 Z M71.3407557,6.19481816 C71.3407557,6.63074144 71.1856687,7.00358234 70.8755094,7.3133115 C70.5653353,7.62305534 70.1919766,7.77792726 69.7554479,7.77792726 C69.3189045,7.77792726 68.9455604,7.62305534 68.6353864,7.3133115 C68.3252123,7.00358234 68.1701253,6.63074144 68.1701253,6.19481816 C68.1701253,5.75888021 68.3252123,5.3860393 68.6353864,5.07631014 C68.9455604,4.7665663 69.3189045,4.61169438 69.7554479,4.61169438 C70.1919766,4.61169438 70.5653353,4.7665663 70.8755094,5.07631014 C71.1856687,5.3860393 71.3407557,5.75888021 71.3407557,6.19481816 Z M75.2351207,4.57727513 C74.8904796,3.68246284 74.3850315,2.90239116 73.7187322,2.23701604 C73.052433,1.5716556 72.282762,1.06689383 71.4096898,0.722730743 L71.3752228,0.722730743 C70.8927282,0.539181011 70.3815307,0.390050524 69.8416008,0.275324599 C69.3016709,0.160613358 68.7445222,0.103257738 68.1701253,0.103257738 L68.1356583,0.103257738 C67.4463908,0.0573703045 66.8145733,0.0286924942 66.2401763,0.0172096229 C65.6657941,0.00574143564 64.4825626,0 62.6904525,0 C60.8983482,0 59.7151167,0.00574143564 59.1407257,0.0172096229 C58.5663331,0.0286924942 57.9345098,0.0573703045 57.2452393,0.103257738 C56.6708468,0.103257738 56.1079502,0.160613358 55.5565347,0.275324599 C55.0051178,0.390050524 54.4766838,0.539181011 53.971218,0.722730743 L54.0401463,0.722730743 C53.1440926,1.06689383 52.3629317,1.5716556 51.6966368,2.23701604 C51.0303405,2.90239116 50.5248831,3.67099465 50.1802476,4.54287057 L50.1457842,4.57727513 C49.9619787,5.05910052 49.8183827,5.56958904 49.714992,6.10877005 C49.6116014,6.64795106 49.5484192,7.20432701 49.5254435,7.77792726 C49.5024678,8.48918982 49.4852363,9.12587245 49.4737484,9.68798984 C49.4622606,10.2501219 49.4565167,11.4259709 49.4565167,13.2155881 C49.4565167,15.0281505 49.4622606,16.2154765 49.4737484,16.7775997 C49.4852363,17.3397245 49.5024678,17.9764056 49.5254435,18.6876652 C49.5484192,19.2383159 49.6116014,19.7832237 49.714992,20.3224047 C49.8183827,20.8615842 49.9619787,21.3835483 50.1457842,21.888313 C50.5133955,22.7831223 51.0303405,23.5632013 51.6966368,24.2285721 C52.3629317,24.8939428 53.1211185,25.3986998 53.971218,25.7428574 L54.0401463,25.7428574 C54.4996594,25.9493518 54.9993728,26.1099562 55.5393027,26.2246754 C56.0792311,26.3393946 56.6363842,26.408225 57.2107767,26.4311689 L57.2452393,26.4311689 C57.9574853,26.4541127 58.5950523,26.4713203 59.1579562,26.4827922 C59.7208617,26.4942641 60.8983482,26.5 62.6904525,26.5 C64.4825626,26.5 65.6657941,26.4942641 66.2401763,26.4827922 C66.8145733,26.4713203 67.4578896,26.4541127 68.1701253,26.4311689 C68.7445222,26.408225 69.3074203,26.3451304 69.8588343,26.2418833 C70.4102483,26.1386359 70.9386794,25.9837674 71.4441422,25.7772729 L71.3752228,25.8116885 C72.2712779,25.4445873 73.052433,24.9340946 73.7187322,24.2801951 C74.3850315,23.6262969 74.8904796,22.8634246 75.2351207,21.9915604 L75.2351207,21.9227278 C75.4419083,21.4179646 75.5969806,20.8960005 75.7003818,20.3568195 C75.8037682,19.81764 75.8554541,19.2727322 75.8554541,18.7220801 C75.878437,18.0108219 75.8956706,17.3741393 75.9071547,16.812016 C75.9186388,16.2498913 75.9243882,15.074038 75.9243882,13.2844192 C75.9243882,11.4947947 75.9243882,10.3132043 75.9243882,9.7396187 C75.9243882,9.16601845 75.90142,8.53507725 75.8554541,7.84676576 C75.8554541,7.25021444 75.7980188,6.67090212 75.6831483,6.10877005 C75.568263,5.54665266 75.4074413,5.01321309 75.2006537,4.50845132 L75.2351207,4.57727513 Z M73.4430253,18.5844178 C73.4430253,19.0203499 73.4028235,19.4505405 73.3224053,19.8750015 C73.2419871,20.2994624 73.1213671,20.7067094 72.9605454,21.096754 L72.9949977,21.0623392 C72.7652419,21.635935 72.4320996,22.1406924 71.9955562,22.5766245 C71.5590275,23.0125565 71.0650487,23.3337656 70.5136348,23.5402606 L70.4791824,23.5746754 C70.1115584,23.7123392 69.7209808,23.8213207 69.3074203,23.9016245 C68.8938598,23.9819282 68.4688152,24.0220786 68.0322718,24.0220786 C67.3200361,24.0450223 66.6939533,24.0622305 66.1540234,24.0737016 C65.6140936,24.0851742 64.4480956,24.0909098 62.6559884,24.0909098 C60.8638841,24.0909098 59.6978861,24.0909098 59.1579562,24.0909098 C58.6180278,24.0909098 57.9919495,24.067966 57.279702,24.0220786 C56.8201888,24.0220786 56.3836572,23.9819282 55.9700952,23.9016245 C55.5565318,23.8213207 55.1544628,23.700868 54.7638764,23.5402606 L54.798339,23.5746754 C54.223948,23.3452382 53.7184896,23.0125565 53.2819506,22.5766245 C52.845413,22.1406924 52.5122707,21.6474061 52.2825134,21.096754 L52.2825134,21.0623392 C52.1446599,20.6952382 52.035527,20.305198 51.9551117,19.8922096 C51.8746965,19.4792213 51.8344903,19.0547662 51.8344903,18.6188326 L51.8344903,18.5844178 C51.7885377,17.8961033 51.7655621,17.2766289 51.7655621,16.7259767 C51.7655621,16.1753246 51.7655621,15.0166794 51.7655621,13.2500029 C51.7655621,11.4603901 51.7655621,10.2960093 51.7655621,9.75682833 C51.7655621,9.21764732 51.7885377,8.59243287 51.8344903,7.88117032 C51.8344903,7.42229599 51.8746965,6.98063128 51.9551117,6.55617619 C52.035527,6.13170642 52.156147,5.72446096 52.3169761,5.33442512 L52.2825134,5.40324893 C52.5122707,4.8067123 52.845413,4.29048234 53.2819506,3.85454439 C53.7184896,3.41862111 54.223948,3.09740908 54.798339,2.89092297 C55.1659513,2.75324599 55.5565318,2.64427619 55.9700952,2.56396951 C56.3836572,2.48366283 56.8201888,2.43204864 57.279702,2.40909758 C57.9689739,2.38614653 58.5893087,2.36895159 59.1407257,2.35746871 C59.6921411,2.34600053 60.8638841,2.34027378 62.6559884,2.34027378 C64.4480956,2.34027378 65.6140936,2.34600053 66.1540234,2.35746871 C66.6939533,2.36895159 67.3200361,2.38614653 68.0322718,2.40909758 C68.4688152,2.43204864 68.8938598,2.48366283 69.3074203,2.56396951 C69.7209808,2.64427619 70.1230572,2.75324599 70.5136348,2.89092297 L70.4791824,2.89092297 C71.0535646,3.12036014 71.5590275,3.44729892 71.9955562,3.87175401 C72.4320996,4.29622378 72.7652419,4.79524411 72.9949977,5.36884437 L72.9949977,5.40324893 C73.1328512,5.74741202 73.2419871,6.13170642 73.3224053,6.55617619 C73.4028235,6.98063128 73.4430253,7.4108278 73.4430253,7.84676576 C73.4660082,8.53507725 73.483227,9.15455026 73.4947258,9.70519946 C73.5062099,10.2558487 73.5119594,11.4259709 73.5119594,13.2155881 C73.5119594,15.0052068 73.5119594,16.169589 73.5119594,16.7087686 C73.5119594,17.2479496 73.5004605,17.8731596 73.4774923,18.5844178 L73.4430253,18.5844178 Z" id="Fill-1"></path>
                </g>
            </g>
        </g>
    </g>
</svg>