<?xml version="1.0" encoding="UTF-8"?>
<svg width="27px" height="25px" viewBox="0 0 27 25" version="1.1" xmlns="http://www.w3.org/2000/svg" xmlns:xlink="http://www.w3.org/1999/xlink">
    <title>Fill 1</title>
    <g id="Page-1" stroke="none" stroke-width="1" fill="none" fill-rule="evenodd">
        <g id="Desktop-|-Accueil" transform="translate(-803.000000, -6365.000000)" fill="#FFFFFF">
            <path d="M816.54688,6387.28278 L814.29688,6387.28278 L814.29688,6381.42341 L822.21876,6373.50153 C822.56251,6373.09528 822.64063,6372.67341 822.45313,6372.2359 C822.26563,6371.7984 821.90626,6371.56403 821.375,6371.53278 L804.218755,6371.53278 C803.687502,6371.56403 803.328131,6371.7984 803.14063,6372.2359 C802.953129,6372.67341 803.031253,6373.09528 803.375005,6373.50153 L811.29688,6381.42341 L811.29688,6387.28278 L809.04688,6387.28278 C808.609378,6387.28278 808.250006,6387.4234 807.968755,6387.70466 C807.687504,6387.98591 807.54688,6388.34528 807.54688,6388.78278 C807.60938,6389.25153 807.843753,6389.50153 808.250005,6389.53278 L817.20313,6389.53278 C817.64063,6389.50153 817.875,6389.25153 817.90626,6388.78278 C817.96876,6388.34528 817.85938,6387.98591 817.57813,6387.70466 C817.32813,6387.4234 816.98438,6387.28278 816.54688,6387.28278 Z M823.29688,6365.53278 C821.79687,6365.56403 820.48439,6365.9859 819.35938,6366.7984 L819.35938,6366.7984 C818.23437,6367.61091 817.43751,6368.68902 816.96876,6370.03278 L819.40626,6370.03278 C819.81251,6369.34528 820.35938,6368.79841 821.04688,6368.39216 C821.70313,6367.9859 822.45313,6367.78278 823.29688,6367.78278 C824.57814,6367.81403 825.625,6368.25153 826.4375,6369.09528 C827.28126,6369.93903 827.71875,6371.00152 827.75,6372.28278 C827.71875,6373.56404 827.28126,6374.62653 826.4375,6375.47028 C825.59375,6376.31403 824.54689,6376.75153 823.29688,6376.78278 C822.64063,6376.78278 822.03126,6376.64216 821.46876,6376.3609 L819.78126,6378.0484 C820.84376,6378.67341 822.01562,6379.00153 823.29688,6379.03278 C825.20314,6378.97028 826.78125,6378.31404 828.03126,6377.06403 C829.31251,6375.78277 829.96876,6374.18904 830,6372.28278 C829.96876,6370.37652 829.31251,6368.78279 828.03126,6367.50153 C826.78125,6366.25152 825.20314,6365.59528 823.29688,6365.53278 Z" id="Fill-1"></path>
        </g>
    </g>
</svg>