<?xml version="1.0" encoding="UTF-8"?>
<svg width="254px" height="64px" viewBox="0 0 254 64" version="1.1" xmlns="http://www.w3.org/2000/svg" xmlns:xlink="http://www.w3.org/1999/xlink">
    <title>Leamo-Logo</title>
    <g id="Page-1" stroke="none" stroke-width="1" fill="none" fill-rule="evenodd">
        <g id="Desktop-|-Accueil" transform="translate(-163.000000, -7756.000000)" fill="#FFFFFF" fill-rule="nonzero">
            <g id="Footer" transform="translate(-2.000000, 7674.500000)">
                <g id="Leamo-Logo" transform="translate(165.229167, 81.856121)">
                    <path d="M223.118249,49.6990518 C221.442043,47.2643157 220.619179,43.703514 220.619179,39.0470811 C220.619179,34.4515166 221.47252,30.9211492 223.179202,28.5168473 C224.885885,26.1125453 227.445908,24.8951772 230.920226,24.8951772 C234.364067,24.8951772 236.954567,26.1125453 238.66125,28.5168473 C240.367932,30.9211492 241.221274,34.4515166 241.221274,39.0470811 C241.221274,43.6426456 240.367932,47.2034473 238.66125,49.6686176 C236.954567,52.133788 234.394544,53.3815903 230.920226,53.3815903 C227.384955,53.3511561 224.763979,52.133788 223.118249,49.6990518 M240.306979,61.3857854 C243.141291,60.2901541 245.548933,58.7075756 247.529903,56.6380499 C249.510874,54.5685241 251.034697,52.0424854 252.101374,49.0903678 C253.16805,46.1382502 253.68615,42.7600538 253.68615,39.0166469 C253.68615,35.3341085 253.16805,32.0167805 252.13185,29.0342287 C251.09565,26.0821111 249.571827,23.5560723 247.590856,21.5169808 C245.609885,19.4778893 243.202244,17.8953108 240.367932,16.7996795 C237.53362,15.7040482 234.364067,15.1562326 230.859273,15.1562326 C227.415432,15.1562326 224.245879,15.7040482 221.442043,16.7996795 C218.607732,17.8953108 216.20009,19.4778893 214.21912,21.5169808 C212.238149,23.5560723 210.714325,26.0516769 209.647649,29.0342287 C208.580972,31.9863463 208.062872,35.3341085 208.062872,39.0166469 C208.062872,46.7165 210.043843,52.6511694 214.036261,56.7902209 C218.028679,60.9292724 223.636349,62.9987981 230.88975,62.9987981 C234.333591,63.0292323 237.503144,62.4814167 240.306979,61.3857854 M137.418411,61.6596932 L149.51757,61.6596932 L149.51757,34.5428192 C149.51757,33.2341486 149.761382,31.9863463 150.249005,30.8602808 C150.736629,29.7342153 151.376635,28.7603209 152.1995,27.9690316 C153.174747,26.9951372 154.18047,26.2951505 155.186194,25.8995059 C156.191917,25.5038613 157.319547,25.2908218 158.508129,25.2908218 C159.270041,25.2908218 159.971,25.4125587 160.671959,25.6255981 C161.372918,25.8690717 161.951971,26.2647163 162.439594,26.8429661 C162.927218,27.421216 163.323412,28.2125052 163.5977,29.2168339 C163.871988,30.2211626 164.024371,31.5298332 164.024371,33.142846 L164.024371,61.6596932 L176.12353,61.6596932 L176.12353,34.0254378 C176.12353,32.8689381 176.367342,31.7733069 176.854965,30.738544 C177.342589,29.7037811 177.982595,28.7907551 178.805459,27.9690316 C179.780707,26.9951372 180.78643,26.2951505 181.792154,25.8995059 C182.797877,25.5038613 183.925507,25.2908218 185.114089,25.2908218 C185.876001,25.2908218 186.57696,25.4125587 187.277919,25.6255981 C187.978877,25.8690717 188.55793,26.2647163 189.045554,26.8429661 C189.533178,27.421216 189.929372,28.2125052 190.20366,29.2168339 C190.477948,30.2211626 190.630331,31.5298332 190.630331,33.142846 L190.630331,61.6596932 L202.72949,61.6596932 L202.72949,31.5298332 C202.72949,25.7777691 201.571384,21.6082834 199.224696,19.0518104 C196.878007,16.4953375 193.373213,15.217101 188.710313,15.217101 C185.936954,15.217101 183.407407,15.825785 181.091195,17.0431531 C178.774983,18.2605212 176.580677,20.2387443 174.508277,23.0082567 C173.654936,20.4822179 172.161589,18.534429 170.089189,17.2257583 C168.016788,15.9170876 165.334859,15.2475352 162.0434,15.2475352 C159.574806,15.2475352 157.197641,15.8562192 154.942382,17.0735873 C152.687123,18.2909554 150.736629,20.1474417 149.060423,22.6734805 L149.060423,16.5866401 L137.296505,16.5866401 L137.296505,61.6596932 L137.418411,61.6596932 Z M118.919193,43.8556851 C118.919193,45.7121714 118.583951,47.2338815 117.882993,48.4816838 C117.182034,49.729486 116.298216,50.7338147 115.201063,51.5555382 C113.250569,52.9859456 110.690545,53.7163665 107.581945,53.7163665 C105.72288,53.7163665 104.290486,53.2902877 103.254286,52.4076958 C102.218086,51.5555382 101.699986,50.3686043 101.699986,48.8773284 C101.699986,47.9034339 101.852368,47.0208421 102.126657,46.1991186 C102.400945,45.4078294 102.979998,44.6774085 103.802863,44.0687245 C104.625727,43.4600404 105.844786,42.9730932 107.399086,42.5470144 C108.953386,42.1513697 110.99531,41.8774619 113.524857,41.7557251 L118.888716,41.4818173 L118.888716,43.8556851 L118.919193,43.8556851 Z M119.163004,61.6596932 L130.591681,61.6596932 L130.591681,33.1732802 C130.591681,30.4037678 130.25644,27.9081632 129.585958,25.7169007 C128.915475,23.4952039 127.848799,21.6082834 126.385928,20.0561391 C124.923058,18.5039948 122.972563,17.3170609 120.534446,16.4649033 C118.126804,15.6431798 115.170587,15.217101 111.726745,15.217101 C106.088598,15.217101 101.57808,16.2822981 98.2256683,18.382258 C94.8732564,20.4822179 92.8008563,23.8908486 92.0084681,28.6081499 L103.071427,29.6429127 C103.772386,26.0212427 106.515269,24.1951906 111.300075,24.1951906 C113.372475,24.1951906 115.170587,24.712572 116.69441,25.7473349 C118.218234,26.7820977 118.980146,28.6690183 118.980146,31.4385306 L118.980146,33.6906616 L113.189616,33.9645694 C110.294351,34.0863062 107.460039,34.360214 104.68668,34.8167271 C101.882845,35.2732401 99.3837742,36.0645293 97.1285153,37.1601606 C94.8732564,38.2557919 93.0751446,39.777502 91.6732269,41.7252909 C90.3017857,43.6730798 89.6008268,46.2295528 89.6008268,49.3338414 C89.6008268,51.7077092 89.9970209,53.7163665 90.8198857,55.4206818 C91.6122739,57.1249971 92.7094269,58.5249704 94.0503917,59.6206017 C95.3913564,60.7162329 96.976133,61.5075222 98.8047213,62.0249036 C100.63331,62.5422851 102.522851,62.8161929 104.564774,62.8161929 C108.069569,62.8161929 110.934357,62.1770746 113.159139,60.9292724 C115.383922,59.6510359 117.395369,58.0380232 119.163004,55.9989316 L119.163004,61.6596932 L119.163004,61.6596932 Z M55.6195609,34.1167404 C55.6805138,32.7472013 55.9243256,31.4689648 56.4119491,30.282031 C56.8690962,29.0950971 57.5091021,28.0603342 58.3624433,27.1777424 C59.185308,26.2951505 60.2215081,25.5951639 61.440567,25.0473482 C62.6596258,24.5299668 64.0615435,24.256059 65.6767965,24.256059 C68.9073025,24.256059 71.2844673,25.1082166 72.8082909,26.8429661 C74.3321145,28.5777157 75.0940263,30.9820176 75.0940263,34.0863062 L55.6195609,34.0863062 L55.6195609,34.1167404 Z M74.4540204,47.5686577 C73.6006792,51.5859724 70.7663673,53.6250639 65.9815612,53.6250639 C62.5377199,53.6250639 59.9167434,52.590301 58.210061,50.5512095 C56.4729021,48.512118 55.5586079,45.6817372 55.436702,42.0600671 L86.7360385,42.0600671 L86.7360385,37.221029 C86.7360385,30.4950704 84.9988796,25.1386508 81.4940853,21.1517704 C78.0197676,17.1648899 72.8082909,15.1866668 65.8901318,15.1866668 C62.5377199,15.1866668 59.4900728,15.7344824 56.7167138,16.7692453 C53.9433549,17.8344424 51.5661901,19.4170209 49.5852195,21.4865466 C47.6042488,23.5560723 46.0499487,26.0821111 44.9527958,29.0342287 C43.8556428,31.9863463 43.3070663,35.3949769 43.3070663,39.1688179 C43.3070663,46.7773684 45.1966075,52.6511694 48.97569,56.7902209 C52.7547725,60.9292724 58.3929198,62.9987981 65.8901318,62.9987981 C72.107332,62.9987981 76.8616616,61.6901274 80.1226441,59.072786 C83.3836266,56.4554447 85.3950737,52.6207352 86.2179384,47.5382235 L74.4540204,47.5382235 L74.4540204,47.5686577 Z M0,61.6596932 L40.7165662,61.6596932 L42.0880074,50.6120779 L12.8915475,50.6120779 L12.8915475,0 L0,0 L0,61.6596932 Z" id="Shape"></path>
                </g>
            </g>
        </g>
    </g>
</svg>