<?xml version="1.0" encoding="UTF-8"?>
<svg width="100px" height="26px" viewBox="0 0 100 26" version="1.1" xmlns="http://www.w3.org/2000/svg" xmlns:xlink="http://www.w3.org/1999/xlink">
    <title>Logo Leamo</title>
    <g id="Page-1" stroke="none" stroke-width="1" fill="none" fill-rule="evenodd">
        <g id="Tel-|-Article" transform="translate(-157.000000, -11.000000)" fill="#4D604A" fill-rule="nonzero">
            <g id="Logo-Leamo" transform="translate(157.000000, 11.881674)">
                <path d="M87.9505046,19.6179721 C87.2897645,18.6568957 86.9654012,17.2513215 86.9654012,15.4132629 C86.9654012,13.5992311 87.301778,12.2056704 87.9745315,11.2566074 C88.647285,10.3075444 89.6564152,9.82700625 91.0259491,9.82700625 C92.3834695,9.82700625 93.4046132,10.3075444 94.0773667,11.2566074 C94.7501201,12.2056704 95.0864969,13.5992311 95.0864969,15.4132629 C95.0864969,17.2272946 94.7501201,18.6328688 94.0773667,19.6059587 C93.4046132,20.5790485 92.3954829,21.0716002 91.0259491,21.0716002 C89.6323883,21.0595867 88.5992311,20.5790485 87.9505046,19.6179721 M94.7260932,24.2311389 C95.8433445,23.7986545 96.7924075,23.1739548 97.5732821,22.3570399 C98.3541567,21.5401249 98.9548294,20.5430082 99.3753003,19.377703 C99.7957713,18.2123979 100,16.8789044 100,15.4012494 C100,13.9476213 99.7957713,12.6381547 99.3873138,11.4608361 C98.9788563,10.295531 98.3781836,9.29841422 97.597309,8.49351273 C96.8164344,7.68861124 95.8673715,7.06391158 94.7501201,6.6314272 C93.6328688,6.19894282 92.3834695,5.98270062 91.0019222,5.98270062 C89.6444017,5.98270062 88.3950024,6.19894282 87.2897645,6.6314272 C86.1725132,7.06391158 85.2234503,7.68861124 84.4425757,8.49351273 C83.6617011,9.29841422 83.0610284,10.2835175 82.6405574,11.4608361 C82.2200865,12.6261413 82.0158578,13.9476213 82.0158578,15.4012494 C82.0158578,18.4406535 82.7967323,20.7832773 84.370495,22.4171072 C85.9442576,24.050937 88.1547333,24.867852 91.0139356,24.867852 C92.371456,24.8798654 93.6208554,24.6636233 94.7260932,24.2311389 M54.1686689,24.33926 L58.9380106,24.33926 L58.9380106,13.6352715 C58.9380106,13.1186929 59.0341182,12.6261413 59.2263335,12.1816434 C59.4185488,11.7371456 59.6708313,11.352715 59.9951946,11.0403652 C60.3796252,10.6559346 60.7760692,10.3796252 61.1725132,10.2234503 C61.5689572,10.0672753 62.0134551,9.98318116 62.4819798,9.98318116 C62.7823162,9.98318116 63.0586257,10.031235 63.3349351,10.1153292 C63.6112446,10.2114368 63.8395002,10.3676117 64.0317155,10.5958674 C64.2239308,10.824123 64.3801057,11.1364728 64.4882268,11.5329169 C64.5963479,11.9293609 64.6564152,12.4459395 64.6564152,13.0826526 L64.6564152,24.33926 L69.4257568,24.33926 L69.4257568,13.4310428 C69.4257568,12.9745315 69.5218645,12.5420471 69.7140798,12.1335896 C69.9062951,11.7251321 70.1585776,11.3647285 70.4829409,11.0403652 C70.8673715,10.6559346 71.2638155,10.3796252 71.6602595,10.2234503 C72.0567035,10.0672753 72.5012013,9.98318116 72.9697261,9.98318116 C73.2700625,9.98318116 73.5463719,10.031235 73.8226814,10.1153292 C74.0989909,10.2114368 74.3272465,10.3676117 74.5194618,10.5958674 C74.7116771,10.824123 74.867852,11.1364728 74.9759731,11.5329169 C75.0840942,11.9293609 75.1441615,12.4459395 75.1441615,13.0826526 L75.1441615,24.33926 L79.9135031,24.33926 L79.9135031,12.4459395 C79.9135031,10.1753964 79.4569918,8.5295531 78.5319558,7.52042287 C77.6069198,6.51129265 76.2253724,6.00672753 74.3873138,6.00672753 C73.2940894,6.00672753 72.2969726,6.24699664 71.38395,6.72753484 C70.4709274,7.20807304 69.6059587,7.98894762 68.7890437,9.08217203 C68.452667,8.08505526 67.8640077,7.31619414 67.0470927,6.79961557 C66.2301778,6.283037 65.1729938,6.01874099 63.8755406,6.01874099 C62.9024507,6.01874099 61.9654012,6.25901009 61.0764056,6.73954829 C60.1874099,7.2200865 59.4185488,7.95290726 58.7578087,8.95002403 L58.7578087,6.54733301 L54.1206151,6.54733301 L54.1206151,24.33926 L54.1686689,24.33926 Z M46.8765017,17.3113888 C46.8765017,18.0442095 46.7443537,18.6448823 46.4680442,19.1374339 C46.1917347,19.6299856 45.8433445,20.0264296 45.4108602,20.3507929 C44.641999,20.9154253 43.6328688,21.2037482 42.4074964,21.2037482 C41.6746756,21.2037482 41.1100432,21.0355598 40.7015858,20.6871696 C40.2931283,20.3507929 40.0888996,19.8822681 40.0888996,19.2936088 C40.0888996,18.9091783 40.1489668,18.5607881 40.2570879,18.2364248 C40.365209,17.924075 40.5934647,17.635752 40.917828,17.3954829 C41.2421913,17.1552138 41.7227295,16.9629986 42.3354157,16.7948102 C42.9481019,16.6386353 43.7530034,16.5305142 44.7501201,16.4824604 L46.8644882,16.3743393 L46.8644882,17.3113888 L46.8765017,17.3113888 Z M46.9726093,24.33926 L51.477655,24.33926 L51.477655,13.094666 C51.477655,12.0014416 51.345507,11.0163383 51.081211,10.1513695 C50.8169149,9.27438731 50.396444,8.5295531 49.8197982,7.91686689 C49.2431523,7.30418068 48.4742912,6.83565593 47.5132148,6.49927919 C46.5641519,6.17491591 45.3988467,6.00672753 44.0413263,6.00672753 C41.8188371,6.00672753 40.0408457,6.42719846 38.7193657,7.25612686 C37.3978856,8.08505526 36.5809707,9.43056223 36.2686209,11.2926478 L40.629505,11.7011052 C40.9058145,10.2715041 41.9870255,9.55069678 43.8731379,9.55069678 C44.6900529,9.55069678 45.3988467,9.75492552 45.9995195,10.163383 C46.6001922,10.5718405 46.9005286,11.3166747 46.9005286,12.4098991 L46.9005286,13.2988948 L44.6179721,13.4070159 C43.4766939,13.4550697 42.3594426,13.5631908 41.2662182,13.7433926 C40.1609803,13.9235944 39.175877,14.2359443 38.2868813,14.6684286 C37.3978856,15.100913 36.6890918,15.7015858 36.1364728,16.4704469 C35.5958674,17.239308 35.3195579,18.2484383 35.3195579,19.4738107 C35.3195579,20.4108602 35.4757328,21.2037482 35.8000961,21.8765017 C36.1124459,22.5492552 36.5449303,23.1018741 37.0735223,23.5343585 C37.6021144,23.9668429 38.226814,24.2791927 38.9476213,24.4834214 C39.6684286,24.6876502 40.4132629,24.7957713 41.2181643,24.7957713 C42.5997117,24.7957713 43.7289765,24.5434887 44.6059587,24.050937 C45.4829409,23.5463719 46.2758289,22.9096588 46.9726093,22.1047573 L46.9726093,24.33926 L46.9726093,24.33926 Z M21.9245555,13.4670831 C21.9485824,12.9264777 22.0446901,12.4219125 22.2369053,11.9533878 C22.4171072,11.484863 22.6693897,11.0764056 23.0057665,10.7280154 C23.3301297,10.3796252 23.7385872,10.1033157 24.2191254,9.88707352 C24.6996636,9.68284479 25.2522826,9.57472369 25.8889957,9.57472369 C27.1624219,9.57472369 28.0994714,9.91110043 28.7001442,10.5958674 C29.3008169,11.2806343 29.6011533,12.2296973 29.6011533,13.4550697 L21.9245555,13.4550697 L21.9245555,13.4670831 Z M29.3488707,18.7770303 C29.012494,20.3628063 27.8952427,21.1677078 26.0091302,21.1677078 C24.6516098,21.1677078 23.6184527,20.7592504 22.9456992,19.9543489 C22.2609322,19.1494474 21.9005286,18.0321961 21.8524748,16.6025949 L34.1902931,16.6025949 L34.1902931,14.6924556 C34.1902931,12.037482 33.5055262,9.92311389 32.1239789,8.34935127 C30.754445,6.77558866 28.7001442,5.99471408 25.9730899,5.99471408 C24.6516098,5.99471408 23.4502643,6.21095627 22.3570399,6.61941374 C21.2638155,7.03988467 20.326766,7.66458433 19.5458914,8.48149928 C18.7650168,9.29841422 18.1523306,10.295531 17.7198462,11.4608361 C17.2873618,12.6261413 17.0711197,13.9716482 17.0711197,15.4613167 C17.0711197,18.4646804 17.8159539,20.7832773 19.3056223,22.4171072 C20.7952907,24.050937 23.0177799,24.867852 25.9730899,24.867852 C28.4238347,24.867852 30.2979337,24.3512734 31.5833734,23.3181163 C32.8688131,22.2849592 33.6617011,20.7712638 33.9860644,18.7650168 L29.3488707,18.7650168 L29.3488707,18.7770303 Z M0,24.33926 L16.049976,24.33926 L16.5905815,19.9783758 L5.08169149,19.9783758 L5.08169149,0 L0,0 L0,24.33926 Z" id="Shape"></path>
            </g>
        </g>
    </g>
</svg>