<?xml version="1.0" encoding="UTF-8"?>
<svg width="150px" height="38px" viewBox="0 0 150 38" version="1.1" xmlns="http://www.w3.org/2000/svg" xmlns:xlink="http://www.w3.org/1999/xlink">
    <title>logo-alterfood-black</title>
    <g id="Page-1" stroke="none" stroke-width="1" fill="none" fill-rule="evenodd">
        <g id="Desktop-|-Accueil" transform="translate(-167.000000, -7854.000000)" fill="#FFFFFF" fill-rule="nonzero">
            <g id="Footer" transform="translate(-2.000000, 7674.500000)">
                <g id="Group-2" transform="translate(169.415785, 180.000000)">
                    <g id="Group">
                        <path d="M11.8263658,17.6125461 L5.67392118,17.6125461 L4.37507175,22.0498155 L0,22.0498155 L6.9727706,0.204797048 L10.4591559,0.204797048 L17.4319265,22.0498155 L13.0568548,22.0498155 L11.8263658,17.6125461 Z M10.8693189,14.1309963 L8.818504,6.75830258 L6.76768911,14.1309963 L10.8693189,14.1309963 Z" id="Shape"></path>
                        <path d="M35.137295,19.5922509 C34.1118876,21.0258303 32.1977937,22.3228782 29.6684553,22.3228782 C25.2250231,22.3228782 22.9007662,19.6605166 22.9007662,14.4723247 L22.9007662,3.95940959 L15.9279956,3.95940959 L15.9279956,0.273062731 L26.9340355,0.273062731 L26.9340355,14.8819188 C26.9340355,17.4760148 27.9594429,18.6365314 29.6000948,18.6365314 C30.6938628,18.6365314 31.3774677,18.1586716 31.9243517,17.4077491 L35.137295,19.5922509 Z" id="Path"></path>
                        <path d="M41.3581001,10.9225092 L41.3581001,16.0424354 C41.3581001,18.8413284 44.502683,19.1143911 46.3484164,18.1586716 L47.8523473,21.2306273 C46.8269398,21.9132841 45.6648114,22.3228782 43.4772755,22.3228782 C39.5807272,22.3228782 37.3931914,19.4557196 37.3931914,15.8376384 L37.3931914,10.9225092 L33.4282826,10.9225092 L33.4282826,7.16789668 L37.3931914,7.16789668 L37.3931914,1.9797048 L41.3581001,0.750922509 L41.3581001,7.23616236 L47.8523473,7.23616236 L47.8523473,10.9225092 L41.3581001,10.9225092 Z" id="Path"></path>
                        <path d="M64.6690293,16.1107011 L54.5516759,16.1107011 C54.9618389,17.5442804 56.1239673,18.5682657 58.0380612,18.5682657 C59.4052711,18.5682657 60.5673995,17.8856089 61.2510045,17.202952 L63.8487034,19.5922509 C62.6865749,21.2306273 60.2939576,22.3228782 58.0380612,22.3228782 C53.3895475,22.3228782 50.4500461,18.9095941 50.4500461,14.6088561 C50.4500461,10.3081181 53.184466,6.89483395 57.9013402,6.89483395 C60.63576,6.89483395 64.8741108,8.53321033 64.8741108,14.3357934 C64.8057503,14.9501845 64.7373898,15.49631 64.6690293,16.1107011 Z M54.4833154,13.1752768 L60.8408415,13.1752768 C60.7041205,11.9464945 59.6787131,10.7177122 57.7646192,10.7177122 C55.9188858,10.6494465 54.8934784,11.6734317 54.4833154,13.1752768 Z" id="Shape"></path>
                        <path d="M81.4857114,9.96678967 L77.8626051,12.2195572 C77.3157211,11.195572 76.6321161,10.7859779 75.6750692,10.7859779 C73.8976963,10.7859779 72.5304864,13.1752768 72.5304864,15.9741697 L72.5304864,22.0498155 L68.5655776,22.0498155 L68.5655776,7.23616236 L72.5304864,7.23616236 L72.5304864,9.89852399 C73.2824518,8.19188192 74.9914642,6.96309963 76.9055581,6.96309963 C78.956373,6.96309963 80.4603039,8.05535055 81.4857114,9.96678967 Z" id="Path"></path>
                        <path d="M87.638156,7.23616236 L87.638156,6.48523985 C87.638156,2.86715867 89.8256919,0 93.7222402,0 C95.909776,0 97.0719045,0.409594096 98.0973119,1.09225092 L96.593381,4.16420664 C94.8160081,3.20848708 91.6030648,3.48154982 91.6030648,6.2804428 L91.6030648,7.16789668 L98.0973119,7.16789668 L98.0973119,10.9225092 L91.6030648,10.9225092 L91.6030648,22.1180812 L87.638156,22.1180812 L87.638156,10.9225092 L84.1517707,10.9225092 L84.1517707,7.16789668 L87.638156,7.16789668 L87.638156,7.23616236 Z" id="Path"></path>
                        <path d="M114.913994,14.6771218 C114.913994,18.9095941 111.63269,22.3911439 107.4627,22.3911439 C103.019268,22.3911439 100.011406,18.9778598 100.011406,14.6771218 C100.011406,10.3763838 102.882547,6.96309963 107.4627,6.96309963 C111.63269,6.96309963 114.913994,10.3763838 114.913994,14.6771218 Z M110.949085,14.6771218 C110.949085,12.4926199 109.445154,10.7177122 107.4627,10.7177122 C105.480245,10.7177122 103.976315,12.4926199 103.976315,14.6771218 C103.976315,16.8616236 105.480245,18.6365314 107.4627,18.6365314 C109.445154,18.6365314 110.949085,16.8616236 110.949085,14.6771218 Z" id="Shape"></path>
                        <path d="M132.004118,14.6771218 C132.004118,18.9095941 128.722814,22.3911439 124.552824,22.3911439 C120.109392,22.3911439 117.10153,18.9778598 117.10153,14.6771218 C117.10153,10.3763838 119.972671,6.96309963 124.552824,6.96309963 C128.791175,6.96309963 132.004118,10.3763838 132.004118,14.6771218 Z M128.039209,14.6771218 C128.039209,12.4926199 126.535278,10.7177122 124.552824,10.7177122 C122.57037,10.7177122 121.066439,12.4926199 121.066439,14.6771218 C121.066439,16.8616236 122.57037,18.6365314 124.552824,18.6365314 C126.535278,18.6365314 128.039209,16.8616236 128.039209,14.6771218 Z" id="Shape"></path>
                        <path d="M149.025882,0.273062731 L149.025882,22.1180812 L145.060973,22.1180812 L145.060973,20.4114391 C144.240647,21.5719557 142.736716,22.3911439 140.959343,22.3911439 C137.062795,22.3911439 134.123293,19.1143911 134.123293,14.6771218 C134.123293,10.2398524 137.062795,6.96309963 140.959343,6.96309963 C142.736716,6.96309963 144.240647,7.78228782 145.060973,8.87453875 L145.060973,0.273062731 L149.025882,0.273062731 Z M145.060973,14.6771218 C145.060973,12.4926199 143.488681,10.7177122 141.574587,10.7177122 C139.660494,10.7177122 138.088202,12.4926199 138.088202,14.6771218 C138.088202,16.8616236 139.660494,18.6365314 141.574587,18.6365314 C143.488681,18.6365314 145.060973,16.8616236 145.060973,14.6771218 Z" id="Shape"></path>
                        <path d="M16.1330771,8.46494465 C16.1330771,7.099631 17.226845,6.00738007 18.5940549,6.00738007 C19.9612649,6.00738007 21.0550328,7.099631 21.0550328,8.46494465 C21.0550328,9.8302583 20.0296254,10.9225092 18.5940549,10.9225092 C17.226845,10.9225092 16.1330771,9.89852399 16.1330771,8.46494465 Z" id="Path"></path>
                    </g>
                    <g id="Group" transform="translate(5.673921, 26.760148)">
                        <path d="M5.40047919,6.6900369 C5.05867671,7.16789668 4.44343225,7.57749077 3.5547458,7.57749077 C2.05081488,7.57749077 1.29884943,6.6900369 1.29884943,4.98339483 L1.29884943,1.43357934 L0,1.43357934 L0,0.204797048 L2.66605935,0.204797048 L2.66605935,5.05166052 C2.66605935,5.93911439 3.00786183,6.34870849 3.5547458,6.34870849 C3.89654828,6.34870849 4.16999026,6.21217712 4.30671125,5.93911439 L5.40047919,6.6900369 Z" id="Path"></path>
                        <polygon id="Path" points="8.27162003 0.204797048 9.57046945 0.204797048 9.09194598 2.52583026 8.27162003 2.52583026"></polygon>
                        <path d="M16.4748796,7.50922509 L16.4065191,6.89483395 C16.0647166,7.30442804 15.3127511,7.57749077 14.6975067,7.57749077 C13.5353782,7.57749077 12.9201338,6.82656827 12.9201338,5.93911439 C12.9201338,4.64206642 14.5607857,3.95940959 16.2014376,4.50553506 C16.1330771,3.89114391 15.8596351,3.61808118 15.1076696,3.61808118 C14.6291462,3.61808118 14.2189832,3.75461255 13.9455412,3.89114391 L13.4670177,2.93542435 C13.8771807,2.66236162 14.4240647,2.38929889 15.3127511,2.38929889 C16.5432401,2.38929889 17.5686475,3.07195572 17.5686475,4.91512915 L17.5686475,7.44095941 L16.4748796,7.50922509 L16.4748796,7.50922509 Z M14.2189832,5.93911439 C14.2189832,6.34870849 14.5607857,6.55350554 15.0393091,6.55350554 C15.5178326,6.55350554 16.0647166,6.14391144 16.2014376,5.46125461 C15.1760301,5.05166052 14.2189832,5.32472325 14.2189832,5.93911439 Z" id="Shape"></path>
                        <path d="M24.3363366,6.6900369 C23.9945341,7.16789668 23.3792897,7.57749077 22.4906032,7.57749077 C20.9866723,7.57749077 20.2347068,6.6900369 20.2347068,4.98339483 L20.2347068,1.43357934 L18.9358574,1.43357934 L18.9358574,0.204797048 L21.6019168,0.204797048 L21.6019168,5.05166052 C21.6019168,5.93911439 21.9437192,6.34870849 22.4906032,6.34870849 C22.8324057,6.34870849 23.1058477,6.21217712 23.2425687,5.93911439 L24.3363366,6.6900369 Z" id="Path"></path>
                        <path d="M30.2153393,6.2804428 L30.2153393,7.50922509 L25.908628,7.50922509 L25.908628,6.2804428 L27.4125589,6.2804428 L27.4125589,3.82287823 L26.1137095,3.82287823 L26.1137095,2.59409594 L28.7797689,2.59409594 L28.7797689,6.34870849 L30.2153393,6.2804428 L30.2153393,6.2804428 Z M27.2758379,0.819188192 C27.2758379,0.341328413 27.6176404,0 28.0961639,0 C28.5746874,0 28.9164899,0.341328413 28.9164899,0.819188192 C28.9164899,1.29704797 28.5746874,1.63837638 28.0961639,1.63837638 C27.6176404,1.63837638 27.2758379,1.29704797 27.2758379,0.819188192 Z" id="Shape"></path>
                        <path d="M37.0513889,4.57380074 L37.0513889,7.50922509 L35.7525395,7.50922509 L35.7525395,4.57380074 C35.7525395,3.75461255 35.547458,3.68634686 35.3423765,3.68634686 C35.137295,3.68634686 34.9322135,3.82287823 34.9322135,4.77859779 L34.9322135,7.50922509 L33.6333641,7.50922509 L33.6333641,4.57380074 C33.6333641,3.75461255 33.4966431,3.68634686 33.2915616,3.68634686 C33.0864801,3.68634686 32.8130381,3.82287823 32.8130381,4.77859779 L32.8130381,7.50922509 L31.5141887,7.50922509 L31.5141887,2.52583026 L32.8130381,2.52583026 L32.8130381,3.07195572 C33.0181196,2.66236162 33.2915616,2.45756458 33.7017246,2.45756458 C34.1802481,2.45756458 34.5220505,2.79889299 34.6587715,3.1402214 C34.863853,2.73062731 35.2056555,2.45756458 35.7525395,2.45756458 C36.5728654,2.45756458 37.0513889,3.00369004 37.0513889,4.57380074 Z" id="Path"></path>
                        <path d="M42.9303916,5.5295203 L39.5123667,5.5295203 C39.6490877,6.00738007 40.0592507,6.34870849 40.6744952,6.34870849 C41.1530187,6.34870849 41.4948211,6.14391144 41.7682631,5.87084871 L42.6569496,6.6900369 C42.2467866,7.23616236 41.4948211,7.57749077 40.7428557,7.57749077 C39.1705643,7.57749077 38.2135173,6.41697417 38.2135173,4.98339483 C38.2135173,3.5498155 39.1022038,2.38929889 40.6744952,2.38929889 C41.5631816,2.38929889 42.9987521,2.93542435 42.9987521,4.84686347 C42.9987521,5.1199262 42.9303916,5.32472325 42.9303916,5.5295203 Z M39.5123667,4.50553506 L41.6315421,4.50553506 C41.5631816,4.09594096 41.2213792,3.68634686 40.6061347,3.68634686 C39.9908902,3.68634686 39.6490877,4.02767528 39.5123667,4.50553506 Z" id="Shape"></path>
                        <path d="M49.1511967,4.64206642 L49.1511967,7.44095941 L47.8523473,7.44095941 L47.8523473,4.64206642 C47.8523473,3.82287823 47.3738238,3.61808118 46.9636608,3.61808118 C46.5534978,3.61808118 46.0749744,3.95940959 46.0749744,4.77859779 L46.0749744,7.44095941 L44.639404,7.44095941 L44.639404,2.45756458 L45.9382534,2.45756458 L45.9382534,3.00369004 C46.1433349,2.73062731 46.5534978,2.38929889 47.1687423,2.38929889 C48.2625103,2.45756458 49.1511967,3.1402214 49.1511967,4.64206642 Z" id="Path"></path>
                        <path d="M53.184466,3.75461255 L53.184466,5.46125461 C53.184466,6.41697417 54.2098734,6.48523985 54.8251179,6.14391144 L55.3036413,7.16789668 C54.9618389,7.37269373 54.5516759,7.50922509 53.8680709,7.50922509 C52.5692215,7.50922509 51.817256,6.55350554 51.817256,5.32472325 L51.817256,3.68634686 L50.6551276,3.68634686 L50.6551276,2.45756458 L51.817256,2.45756458 L51.817256,0.682656827 L53.1161055,0.273062731 L53.1161055,2.45756458 L55.3036413,2.45756458 L55.3036413,3.68634686 L53.184466,3.75461255 L53.184466,3.75461255 Z" id="Path"></path>
                        <path d="M60.7041205,7.50922509 L60.63576,6.89483395 C60.2939576,7.30442804 59.5419921,7.57749077 58.9267476,7.57749077 C57.7646192,7.57749077 57.1493747,6.82656827 57.1493747,5.93911439 C57.1493747,4.64206642 58.7900267,3.95940959 60.4306786,4.50553506 C60.3623181,3.89114391 60.0888761,3.61808118 59.4052711,3.61808118 C58.9267476,3.61808118 58.5165847,3.75461255 58.2431427,3.89114391 L57.7646192,2.93542435 C58.1747822,2.66236162 58.7216662,2.38929889 59.6103526,2.38929889 C60.8408415,2.38929889 61.866249,3.07195572 61.866249,4.91512915 L61.866249,7.44095941 L60.7041205,7.50922509 L60.7041205,7.50922509 Z M58.4482242,5.93911439 C58.4482242,6.34870849 58.7900267,6.55350554 59.2685501,6.55350554 C59.7470736,6.55350554 60.2939576,6.14391144 60.4306786,5.46125461 C59.4052711,5.05166052 58.4482242,5.32472325 58.4482242,5.93911439 Z" id="Shape"></path>
                        <path d="M65.8311577,3.75461255 L65.8311577,5.46125461 C65.8311577,6.41697417 66.8565652,6.48523985 67.4718097,6.14391144 L67.9503331,7.16789668 C67.6085306,7.37269373 67.1983677,7.50922509 66.5147627,7.50922509 C65.2159133,7.50922509 64.4639478,6.55350554 64.4639478,5.32472325 L64.4639478,3.68634686 L63.3018194,3.68634686 L63.3018194,2.45756458 L64.4639478,2.45756458 L64.4639478,0.682656827 L65.7627973,0.273062731 L65.7627973,2.45756458 L67.9503331,2.45756458 L67.9503331,3.68634686 L65.8311577,3.75461255 L65.8311577,3.75461255 Z" id="Path"></path>
                        <path d="M74.5129408,6.2804428 L74.5129408,7.50922509 L70.2062295,7.50922509 L70.2062295,6.2804428 L71.7101604,6.2804428 L71.7101604,3.82287823 L70.411311,3.82287823 L70.411311,2.59409594 L73.0773703,2.59409594 L73.0773703,6.34870849 L74.5129408,6.2804428 L74.5129408,6.2804428 Z M71.5050789,0.819188192 C71.5050789,0.341328413 71.8468814,0 72.3254049,0 C72.8039284,0 73.1457308,0.341328413 73.1457308,0.819188192 C73.1457308,1.29704797 72.8039284,1.63837638 72.3254049,1.63837638 C71.8468814,1.70664207 71.5050789,1.29704797 71.5050789,0.819188192 Z" id="Shape"></path>
                        <path d="M81.0071879,4.98339483 C81.0071879,6.41697417 79.9134199,7.57749077 78.54621,7.57749077 C77.0422791,7.57749077 76.0852322,6.41697417 76.0852322,4.98339483 C76.0852322,3.5498155 77.0422791,2.38929889 78.54621,2.38929889 C79.9134199,2.45756458 81.0071879,3.5498155 81.0071879,4.98339483 Z M79.639978,4.98339483 C79.639978,4.23247232 79.1614545,3.68634686 78.4778495,3.68634686 C77.7942446,3.68634686 77.3157211,4.30073801 77.3157211,4.98339483 C77.3157211,5.66605166 77.7942446,6.2804428 78.4778495,6.2804428 C79.1614545,6.34870849 79.639978,5.73431734 79.639978,4.98339483 Z" id="Shape"></path>
                        <path d="M87.0229115,4.64206642 L87.0229115,7.44095941 L85.7240621,7.44095941 L85.7240621,4.64206642 C85.7240621,3.82287823 85.2455386,3.61808118 84.8353757,3.61808118 C84.4252127,3.61808118 83.9466892,3.95940959 83.9466892,4.77859779 L83.9466892,7.44095941 L82.6478398,7.44095941 L82.6478398,2.45756458 L83.9466892,2.45756458 L83.9466892,3.00369004 C84.1517707,2.73062731 84.5619337,2.38929889 85.1771781,2.38929889 C86.2025856,2.45756458 87.0229115,3.1402214 87.0229115,4.64206642 Z" id="Path"></path>
                        <path d="M99.8063243,5.5295203 L96.3882995,5.5295203 C96.5250205,6.00738007 96.9351835,6.34870849 97.5504279,6.34870849 C98.0289514,6.34870849 98.3707539,6.14391144 98.6441959,5.87084871 L99.5328823,6.6900369 C99.1227194,7.23616236 98.3707539,7.57749077 97.6187884,7.57749077 C96.046497,7.57749077 95.0894501,6.41697417 95.0894501,4.98339483 C95.0894501,3.5498155 95.9781365,2.38929889 97.5504279,2.38929889 C98.4391144,2.38929889 99.8746848,2.93542435 99.8746848,4.84686347 C99.8746848,5.1199262 99.8063243,5.32472325 99.8063243,5.5295203 Z M96.3882995,4.50553506 L98.5074749,4.50553506 C98.4391144,4.09594096 98.0973119,3.68634686 97.4820674,3.68634686 C96.866823,3.68634686 96.5250205,4.02767528 96.3882995,4.50553506 Z" id="Shape"></path>
                        <path d="M106.027129,4.64206642 L106.027129,7.44095941 L104.72828,7.44095941 L104.72828,4.64206642 C104.72828,3.82287823 104.249757,3.61808118 103.839594,3.61808118 C103.429431,3.61808118 102.950907,3.95940959 102.950907,4.77859779 L102.950907,7.44095941 L101.652058,7.44095941 L101.652058,2.45756458 L102.950907,2.45756458 L102.950907,3.00369004 C103.155989,2.73062731 103.566152,2.38929889 104.181396,2.38929889 C105.138443,2.45756458 106.027129,3.1402214 106.027129,4.64206642 Z" id="Path"></path>
                        <path d="M112.521377,8.32841328 C112.521377,9.48892989 111.495969,10.2398524 110.060399,10.2398524 C108.488107,10.2398524 107.599421,9.48892989 107.599421,8.32841328 C107.599421,7.64575646 107.941223,7.16789668 108.351386,6.89483395 C108.214665,6.6900369 108.077944,6.00738007 108.488107,5.46125461 C108.146305,5.1199262 108.009584,4.7103321 108.009584,4.23247232 C108.009584,3.20848708 108.82991,2.38929889 110.060399,2.38929889 C110.470562,2.38929889 110.880725,2.52583026 111.222527,2.66236162 L111.906132,2.04797048 L112.658098,2.86715867 L111.974493,3.48154982 C112.111214,3.68634686 112.111214,3.95940959 112.111214,4.16420664 C112.111214,5.18819188 111.222527,5.93911439 110.060399,5.93911439 C109.855317,5.93911439 109.650236,5.93911439 109.513515,5.87084871 C109.445154,6.07564576 109.513515,6.34870849 110.26548,6.41697417 C111.56433,6.55350554 112.521377,7.099631 112.521377,8.32841328 Z M111.154167,8.32841328 C111.154167,7.91881919 110.812364,7.71402214 110.128759,7.71402214 C109.786957,7.71402214 109.376794,7.71402214 109.240073,7.64575646 C108.966631,7.78228782 108.82991,7.98708487 108.82991,8.2601476 C108.82991,8.6697417 109.171712,9.01107011 109.992038,9.01107011 C110.744004,9.01107011 111.154167,8.6697417 111.154167,8.32841328 Z M109.240073,4.23247232 C109.240073,4.57380074 109.581875,4.84686347 109.992038,4.84686347 C110.402201,4.84686347 110.744004,4.57380074 110.744004,4.23247232 C110.744004,3.89114391 110.402201,3.61808118 109.992038,3.61808118 C109.581875,3.68634686 109.240073,3.95940959 109.240073,4.23247232 Z" id="Shape"></path>
                        <path d="M117.580053,7.50922509 L117.511693,6.89483395 C117.16989,7.30442804 116.417925,7.57749077 115.80268,7.57749077 C114.640552,7.57749077 114.025308,6.82656827 114.025308,5.93911439 C114.025308,4.64206642 115.665959,3.95940959 117.306611,4.50553506 C117.238251,3.89114391 116.964809,3.61808118 116.281204,3.61808118 C115.80268,3.61808118 115.392517,3.75461255 115.119075,3.89114391 L114.640552,2.93542435 C115.050715,2.66236162 115.597599,2.38929889 116.486285,2.38929889 C117.716774,2.38929889 118.742182,3.07195572 118.742182,4.91512915 L118.742182,7.44095941 L117.580053,7.50922509 L117.580053,7.50922509 Z M115.324157,5.93911439 C115.324157,6.34870849 115.665959,6.55350554 116.144483,6.55350554 C116.623006,6.55350554 117.16989,6.14391144 117.306611,5.46125461 C116.281204,5.05166052 115.324157,5.32472325 115.324157,5.93911439 Z" id="Shape"></path>
                        <path d="M125.099708,8.32841328 C125.099708,9.48892989 124.0743,10.2398524 122.63873,10.2398524 C121.066439,10.2398524 120.177752,9.48892989 120.177752,8.32841328 C120.177752,7.64575646 120.519555,7.16789668 120.929718,6.89483395 C120.792997,6.6900369 120.656276,6.00738007 121.066439,5.46125461 C120.724636,5.1199262 120.587915,4.7103321 120.587915,4.23247232 C120.587915,3.20848708 121.408241,2.38929889 122.63873,2.38929889 C123.048893,2.38929889 123.459056,2.52583026 123.800858,2.66236162 L124.484463,2.04797048 L125.236429,2.86715867 L124.552824,3.48154982 C124.689545,3.68634686 124.689545,3.95940959 124.689545,4.16420664 C124.689545,5.18819188 123.800858,5.93911439 122.63873,5.93911439 C122.433649,5.93911439 122.228567,5.93911439 122.091846,5.87084871 C122.023486,6.07564576 122.091846,6.34870849 122.843812,6.41697417 C124.211021,6.55350554 125.099708,7.099631 125.099708,8.32841328 Z M123.800858,8.32841328 C123.800858,7.91881919 123.459056,7.71402214 122.775451,7.71402214 C122.433649,7.71402214 122.023486,7.71402214 121.886765,7.64575646 C121.613323,7.78228782 121.476602,7.98708487 121.476602,8.2601476 C121.476602,8.6697417 121.818404,9.01107011 122.63873,9.01107011 C123.390695,9.01107011 123.800858,8.6697417 123.800858,8.32841328 Z M121.886765,4.23247232 C121.886765,4.57380074 122.228567,4.84686347 122.63873,4.84686347 C123.048893,4.84686347 123.390695,4.57380074 123.390695,4.23247232 C123.390695,3.89114391 123.048893,3.61808118 122.63873,3.61808118 C122.228567,3.61808118 121.886765,3.95940959 121.886765,4.23247232 Z" id="Shape"></path>
                        <path d="M131.388874,5.5295203 L127.970849,5.5295203 C128.10757,6.00738007 128.517733,6.34870849 129.132977,6.34870849 C129.611501,6.34870849 129.953303,6.14391144 130.226745,5.87084871 L131.115432,6.6900369 C130.705269,7.23616236 129.953303,7.57749077 129.201338,7.57749077 C127.629046,7.57749077 126.671999,6.41697417 126.671999,4.98339483 C126.671999,3.5498155 127.560686,2.38929889 129.132977,2.38929889 C130.021664,2.38929889 131.457234,2.93542435 131.457234,4.84686347 C131.457234,5.1199262 131.457234,5.32472325 131.388874,5.5295203 Z M127.970849,4.50553506 L130.090024,4.50553506 C130.021664,4.09594096 129.679861,3.68634686 129.064617,3.68634686 C128.449372,3.68634686 128.10757,4.02767528 127.970849,4.50553506 Z M129.201338,1.84317343 L128.381012,1.84317343 L129.064617,0.204797048 L130.226745,0.204797048 L129.201338,1.84317343 Z" id="Shape"></path>
                        <path d="M137.7464,5.5295203 L134.328375,5.5295203 C134.465096,6.00738007 134.875259,6.34870849 135.490503,6.34870849 C135.969027,6.34870849 136.310829,6.14391144 136.584271,5.87084871 L137.472958,6.6900369 C137.062795,7.23616236 136.310829,7.57749077 135.558864,7.57749077 C133.986572,7.57749077 133.029525,6.41697417 133.029525,4.98339483 C133.029525,3.5498155 133.918212,2.38929889 135.490503,2.38929889 C136.37919,2.38929889 137.81476,2.93542435 137.81476,4.84686347 C137.7464,5.1199262 137.7464,5.32472325 137.7464,5.5295203 Z M134.328375,4.50553506 L136.44755,4.50553506 C136.37919,4.09594096 136.037387,3.68634686 135.422143,3.68634686 C134.806898,3.68634686 134.465096,4.02767528 134.328375,4.50553506 Z" id="Shape"></path>
                    </g>
                </g>
            </g>
        </g>
    </g>
</svg>