<?xml version="1.0" encoding="UTF-8"?>
<svg width="14px" height="27px" viewBox="0 0 14 27" version="1.1" xmlns="http://www.w3.org/2000/svg" xmlns:xlink="http://www.w3.org/1999/xlink">
    <title>Fill 1</title>
    <g id="Page-1" stroke="none" stroke-width="1" fill="none" fill-rule="evenodd">
        <g id="Desktop-|-Accueil" transform="translate(-1143.000000, -8147.000000)" fill="#FFFFFF">
            <g id="Footer" transform="translate(-2.000000, 7674.500000)">
                <g id="Group" transform="translate(1145.174173, 472.856121)">
                    <path d="M8.92601321,26.4311615 L8.92601321,14.3857103 L12.9926928,14.3857103 L13.5785695,9.67078021 L8.92601321,9.67078021 L8.92601321,6.67662887 C8.92601321,6.01125375 9.06961023,5.46634598 9.35680575,5.04187621 C9.64400274,4.61742113 10.2700811,4.40519358 11.23506,4.40519358 L13.716423,4.40519358 L13.716423,0.206486107 C13.1879816,0.1376623 12.6250865,0.0860334307 12.0277184,0.0516288688 C11.4303488,0.0172096229 10.832991,0 10.2356229,0 C10.2126458,0 10.1896717,0 10.1666947,0 C10.1437191,0 10.120745,0 10.0977694,0 C8.30566365,0 6.84672957,0.533439575 5.72092013,1.60031873 C4.59511069,2.66721256 4.03221553,4.21016098 4.03221553,6.22922272 L4.03221553,9.67078021 L0,9.67078021 L0,14.3857103 L4.03221553,14.3857103 L4.03221553,26.4311615 L8.92601321,26.4311615 Z" id="Fill-1"></path>
                </g>
            </g>
        </g>
    </g>
</svg>