<?xml version="1.0" encoding="UTF-8"?>
<svg width="25px" height="25px" viewBox="0 0 25 25" version="1.1" xmlns="http://www.w3.org/2000/svg" xmlns:xlink="http://www.w3.org/1999/xlink">
    <title>Fill 1</title>
    <g id="Page-1" stroke="none" stroke-width="1" fill="none" fill-rule="evenodd">
        <g id="Desktop-|-Accueil" transform="translate(-1021.000000, -5746.000000)" fill="#4D604A">
            <g id="Find-us" transform="translate(-1.000000, 851.947769)">
                <g id="Ville" transform="translate(811.000000, 4878.427231)">
                    <path d="M235.26562,38.562495 L229.07812,32.468745 C229.89063,31.593741 230.53125,30.585938 231,29.44531 C231.46875,28.30468 231.70312,27.09375 231.70312,25.8125 C231.70312,24.43749 231.4375,23.14844 230.90625,21.94531 C230.375,20.74218 229.65235,19.69141 228.73828,18.79296 C227.82421,17.89452 226.75391,17.18359 225.52734,16.66015 C224.30078,16.13671 222.99219,15.875 221.60156,15.875 C220.210931,15.875 218.90235,16.13671 217.675781,16.66015 C216.449213,17.18359 215.378911,17.89452 214.464844,18.79296 C213.550777,19.69141 212.828128,20.74218 212.296875,21.94531 C211.765622,23.14844 211.5,24.43749 211.5,25.8125 C211.5,27.1875 211.765622,28.47655 212.296875,29.679682 C212.828128,30.882814 213.550777,31.933584 214.464844,32.832026 C215.378911,33.730468 216.449213,34.441399 217.675781,34.964839 C218.90235,35.488279 220.210931,35.749995 221.60156,35.749995 C222.80469,35.749995 223.94531,35.554684 225.02344,35.164058 C226.10157,34.773431 227.07812,34.226561 227.95312,33.523432 L234.16406,39.64062 C234.32031,39.7968708 234.50391,39.875 234.71484,39.875 C234.92578,39.875 235.10937,39.7968708 235.26562,39.64062 C235.42188,39.4999943 235.5,39.3242148 235.5,39.1132762 C235.5,38.9023377 235.42188,38.7187458 235.26562,38.562495 Z M221.60156,34.226558 C220.414057,34.226558 219.304693,34.003903 218.273438,33.558589 C217.242182,33.113274 216.339848,32.511718 215.566406,31.753901 C214.792965,30.996085 214.17969,30.105469 213.726562,29.08203 C213.273435,28.05858 213.046875,26.96875 213.046875,25.8125 C213.046875,24.65624 213.273435,23.56641 213.726562,22.54296 C214.17969,21.51952 214.792965,20.62891 215.566406,19.87109 C216.339848,19.11327 217.242182,18.51172 218.273438,18.0664 C219.304693,17.62109 220.414057,17.39843 221.60156,17.39843 C222.77344,17.39843 223.8789,17.62109 224.91797,18.0664 C225.95704,18.51172 226.86328,19.11327 227.63672,19.87109 C228.41016,20.62891 229.01953,21.51952 229.46484,22.54296 C229.91016,23.56641 230.13281,24.65624 230.13281,25.8125 C230.13281,26.96875 229.91016,28.05858 229.46484,29.08203 C229.01953,30.105469 228.41016,30.996085 227.63672,31.753901 C226.86328,32.511718 225.95704,33.113274 224.91797,33.558589 C223.8789,34.003903 222.77344,34.226558 221.60156,34.226558 Z" id="Fill-1"></path>
                </g>
            </g>
        </g>
    </g>
</svg>