<?xml version="1.0" encoding="UTF-8"?>
<svg width="30px" height="24px" viewBox="0 0 30 24" version="1.1" xmlns="http://www.w3.org/2000/svg" xmlns:xlink="http://www.w3.org/1999/xlink">
    <title>Fill 1@1x</title>
    <g id="Page-1" stroke="none" stroke-width="1" fill="none" fill-rule="evenodd">
        <g id="Desktop-|-Accueil" transform="translate(-1246.000000, -8150.000000)" fill="#FFFFFF">
            <g id="Footer" transform="translate(-2.000000, 7674.500000)">
                <g id="Group" transform="translate(1145.174173, 472.856121)">
                    <path d="M129.064578,8.63831443 C129.064578,8.77597673 129.064578,8.9078976 129.064578,9.03409171 C129.064578,9.16028582 129.064578,9.29220669 129.064578,9.42986899 C129.064578,11.3800922 128.696968,13.3532386 127.96175,15.3493508 C127.226516,17.3454644 126.146686,19.1522649 124.722185,20.7698049 C123.297699,22.387345 121.540085,23.7008592 119.4493,24.7103872 C117.358504,25.7428603 114.946091,26.2590888 112.211984,26.2590888 C110.534757,26.2590888 108.926483,26.0239181 107.387111,25.5535694 C105.84774,25.0832209 104.423268,24.435067 103.113653,23.6090888 C103.366386,23.632034 103.607627,23.6492406 103.837384,23.6607132 C104.067141,23.6721844 104.308382,23.6779214 104.561115,23.6779214 C104.561115,23.6779214 104.561115,23.6779214 104.561115,23.6779214 C104.561115,23.6779214 104.572602,23.6779214 104.595577,23.6779214 C105.97412,23.6779214 107.289458,23.4484857 108.541634,22.9896099 C109.79381,22.5307326 110.925347,21.9112582 111.936277,21.1311674 L111.901813,21.1311674 C110.615174,21.1082237 109.47215,20.7181849 108.472707,19.9610393 C107.473264,19.2038923 106.778261,18.240265 106.387673,17.070131 L106.387673,17.0357147 C106.548503,17.0586584 106.726563,17.0816021 106.921856,17.1045459 C107.117149,17.1274896 107.306696,17.1389607 107.490501,17.1389607 C107.766209,17.1389607 108.030426,17.121754 108.283159,17.0873377 C108.535892,17.0529229 108.788621,17.0012999 109.041353,16.9324687 C107.685787,16.6571426 106.554251,15.9803096 105.646711,14.9019491 C104.739171,13.8235885 104.285408,12.5616973 104.285408,11.1162358 C104.285408,11.1162358 104.285408,11.1162358 104.285408,11.1162358 C104.285408,11.1162358 104.285408,11.1162358 104.285408,11.1162358 L104.285408,11.1162358 L104.285408,11.0473973 C104.69897,11.2768492 105.129758,11.4546575 105.577784,11.5808457 C106.02581,11.7070369 106.491061,11.7816036 106.973551,11.8045473 C106.169401,11.2538981 105.526092,10.548377 105.043602,9.68798396 C104.561112,8.82759092 104.319871,7.89264732 104.319871,6.88312379 C104.319871,6.88312379 104.319871,6.88312379 104.319871,6.88312379 C104.319871,6.88312379 104.319871,6.88312379 104.319871,6.88312379 L104.319871,6.88312379 C104.319871,6.33247459 104.394541,5.80476176 104.543883,5.3 C104.693225,4.79523824 104.89426,4.32489572 105.146991,3.88895776 C105.882214,4.78377005 106.69784,5.59826097 107.593892,6.33247459 C108.489944,7.06667352 109.454908,7.69761471 110.488815,8.22532754 C111.522722,8.75304036 112.614051,9.17749545 113.762836,9.49870748 C114.91162,9.81991951 116.094851,10.0149374 117.312563,10.0837759 L117.347027,10.0837759 C117.301075,9.85432407 117.266612,9.63062834 117.243636,9.41265936 C117.220661,9.19470507 117.209174,8.97099465 117.209174,8.74155749 C117.209174,8.74155749 117.209174,8.73583074 117.209174,8.72434787 C117.209174,8.71287968 117.209174,8.70715293 117.209174,8.70715293 C117.209174,7.07812702 117.789301,5.69005052 118.949572,4.54286469 C120.10985,3.39566418 121.505603,2.82207861 123.136877,2.82207861 C123.136877,2.82207861 123.136877,2.82207861 123.136877,2.82207861 C123.136877,2.82207861 123.136877,2.82207861 123.136877,2.82207861 L123.136877,2.82207861 C123.986981,2.82207861 124.78537,2.98841872 125.532073,3.32111362 C126.27879,3.65379384 126.916357,4.10692674 127.444803,4.68052699 C128.157038,4.54286469 128.829072,4.34784677 129.460905,4.09545855 C130.092737,3.84307033 130.695837,3.55627754 131.270234,3.23506551 L131.201299,3.23506551 C130.971544,3.94632806 130.638401,4.57726926 130.201873,5.12793314 C129.765329,5.67858234 129.248382,6.13744198 128.651017,6.50455613 L128.61655,6.50455613 C129.236898,6.43571764 129.839998,6.3210064 130.425879,6.16039304 C131.01176,5.99977968 131.568909,5.80476176 132.097354,5.5753246 L132.02842,5.60974384 C131.61486,6.20628048 131.161098,6.75692967 130.667119,7.26169144 C130.17314,7.7664532 129.650459,8.22532754 129.099045,8.63831443 L129.064578,8.63831443 Z" id="Fill-1"></path>
                </g>
            </g>
        </g>
    </g>
</svg>